<?xml version="1.0" encoding="UTF-8" standalone="no"?>
<svg
   height="128px"
   viewBox="0 0 128 128"
   width="128px"
   version="1.1"
   id="svg7933"
   sodipodi:docname="com.github.eminfedar.prayertimer.svg"
   inkscape:version="1.2.2 (b0a8486541, 2022-12-01)"
   xmlns:inkscape="http://www.inkscape.org/namespaces/inkscape"
   xmlns:sodipodi="http://sodipodi.sourceforge.net/DTD/sodipodi-0.dtd"
   xmlns="http://www.w3.org/2000/svg"
   xmlns:svg="http://www.w3.org/2000/svg">
  <defs
     id="defs7937" />
  <sodipodi:namedview
     id="namedview7935"
     pagecolor="#ffffff"
     bordercolor="#000000"
     borderopacity="0.25"
     inkscape:showpageshadow="2"
     inkscape:pageopacity="0.0"
     inkscape:pagecheckerboard="0"
     inkscape:deskcolor="#d1d1d1"
     showgrid="false"
     inkscape:zoom="5.5349871"
     inkscape:cx="54.652341"
     inkscape:cy="67.570167"
     inkscape:window-width="1920"
     inkscape:window-height="1011"
     inkscape:window-x="0"
     inkscape:window-y="0"
     inkscape:window-maximized="1"
     inkscape:current-layer="svg7933" />
  <linearGradient
     id="a"
     gradientUnits="userSpaceOnUse"
     x1="8.406951"
     x2="119.428631"
     y1="48.016139"
     y2="48.016139">
    <stop
       offset="0"
       stop-color="#bab7b1"
       id="stop7858" />
    <stop
       offset="0.0454546"
       stop-color="#d9d9d7"
       id="stop7860" />
    <stop
       offset="0.0909091"
       stop-color="#d0cfcc"
       id="stop7862" />
    <stop
       offset="0.909091"
       stop-color="#d2d1cd"
       id="stop7864" />
    <stop
       offset="0.954545"
       stop-color="#deded6"
       id="stop7866" />
    <stop
       offset="1"
       stop-color="#b7b7b7"
       id="stop7868" />
  </linearGradient>
  <radialGradient
     id="b"
     cx="94.675377"
     cy="245.898895"
     gradientTransform="matrix(1.473101 -0.0172966 0.013916 1.425968 -43.109601 -294.109419)"
     gradientUnits="userSpaceOnUse"
     r="25.410217">
    <stop
       offset="0"
       stop-color="#e5a50a"
       id="stop7871" />
    <stop
       offset="1"
       stop-color="#f9d67e"
       id="stop7873" />
  </radialGradient>
  <linearGradient
     id="c"
     gradientUnits="userSpaceOnUse"
     x1="77.26060459845"
     x2="78.61365482964"
     y1="23.70141929064"
     y2="23.70141929064">
    <stop
       offset="0"
       stop-color="#d8d7d5"
       id="stop7876" />
    <stop
       offset="1"
       stop-color="#f5f6f4"
       id="stop7878" />
  </linearGradient>
  <linearGradient
     id="d"
     gradientUnits="userSpaceOnUse"
     x1="20.826284"
     x2="39.68248777124"
     y1="16.614537"
     y2="16.614537">
    <stop
       offset="0"
       stop-color="#bab7b1"
       id="stop7881" />
    <stop
       offset="0.129984"
       stop-color="#d9d9d7"
       id="stop7883" />
    <stop
       offset="0.440759"
       stop-color="#d0cfcc"
       id="stop7885" />
    <stop
       offset="0.526977"
       stop-color="#d2d1cd"
       id="stop7887" />
    <stop
       offset="0.712947"
       stop-color="#deded6"
       id="stop7889" />
    <stop
       offset="1"
       stop-color="#b7b7b7"
       id="stop7891" />
  </linearGradient>
  <radialGradient
     id="e"
     cx="103.282829"
     cy="248.397049"
     gradientTransform="matrix(0.474622 0.250861 -0.231886 0.431719 48.262024 -112.761668)"
     gradientUnits="userSpaceOnUse"
     r="25.410217">
    <stop
       offset="0"
       stop-color="#e5a50a"
       id="stop7894" />
    <stop
       offset="0.346281"
       stop-color="#edbb3f"
       id="stop7896" />
    <stop
       offset="0.594285"
       stop-color="#f2c75a"
       id="stop7898" />
    <stop
       offset="1"
       stop-color="#f9d67e"
       id="stop7900" />
  </radialGradient>
  <path
     d="m 77.261719 19.015625 h 1.351562 v 9.371094 h -1.351562 z m 0 0"
     fill="url(#c)"
     id="path7911" />
  <path
     d="m 18.5 42.96875 h 90.835938 c 5.574218 0 10.09375 4.519531 10.09375 10.09375 v 52.988281 c 0 5.574219 -4.519532 10.09375 -10.09375 10.09375 h -90.835938 c -5.574219 0 -10.09375 -4.519531 -10.09375 -10.09375 v -52.988281 c 0 -5.574219 4.519531 -10.09375 10.09375 -10.09375 z m 0 0"
     fill="url(#a)"
     id="path7903" />
  <path
     d="m 18.5 42.96875 h 90.835938 c 5.574218 0 10.09375 4.519531 10.09375 10.09375 v 16.402344 c 0 5.574218 -4.519532 10.089844 -10.09375 10.089844 h -90.835938 c -5.574219 0 -10.09375 -4.515626 -10.09375 -10.089844 v -16.402344 c 0 -5.574219 4.519531 -10.09375 10.09375 -10.09375 z m 0 0"
     fill="#e1e0dd"
     id="path7905" />
  <path
     d="m 74.554688 3.617188 l -4.78125 7.9375 c 0 4.914062 4.0625 8.898437 9.078124 8.898437 c 2.453126 -0.007813 7.011719 -2.339844 7.011719 -2.339844 v -1.171875 c -1.257812 0.625 -2.410156 0.878906 -3.820312 0.882813 c -5.011719 0 -9.074219 -3.980469 -9.074219 -8.894531 c 0.007812 -1.917969 0.410156 -3.78125 1.585938 -5.3125 z m 0 0"
     fill="#f8e45c"
     id="path7907" />
  <path
     d="m 77.9375 27.023438 c -17.707031 0 -32.058594 15.742187 -32.058594 35.164062 c 16.121094 12.628906 48.546875 12.753906 64.117188 0 c 0 -19.417969 -14.351563 -35.164062 -32.058594 -35.164062 z m 0 0"
     fill="url(#b)"
     id="path7909" />
  <path
     d="m 74.554688 3.617188 c -3.070313 1.644531 -5.011719 5.003906 -5.019532 8.683593 c 0 5.375 4.066406 9.734375 9.078125 9.734375 c 2.859375 -0.011718 5.542969 -1.464844 7.25 -3.921875 c -1.257812 0.683594 -2.648437 1.042969 -4.054687 1.046875 c -5.015625 0 -9.078125 -4.355468 -9.078125 -9.730468 c 0.007812 -2.097657 0.648437 -4.136719 1.824219 -5.8125 z m 0 0"
     fill="#f8e45c"
     id="path7913" />
  <path
     d="m 74.554688 3.617188 c -3.070313 1.644531 -5.011719 5.003906 -5.019532 8.683593 c 0 5.375 4.066406 9.734375 9.078125 9.734375 c 2.859375 -0.011718 5.542969 -1.464844 7.25 -3.921875 c -1.257812 0.683594 -2.648437 1.042969 -4.054687 1.046875 c -5.015625 0 -9.078125 -4.355468 -9.078125 -9.730468 c 0.007812 -2.097657 0.648437 -4.136719 1.824219 -5.8125 z m 0 0"
     fill="#f6d32d"
     id="path7915" />
  <path
     d="m 28.367188 12.84375 h 3.773437 c 4.179687 0 7.542969 3.363281 7.542969 7.542969 v 39.597656 c 0 4.179687 -3.363282 7.542969 -7.542969 7.542969 h -3.773437 c -4.175782 0 -7.539063 -3.363282 -7.539063 -7.542969 v -39.597656 c 0 -4.179688 3.363281 -7.542969 7.539063 -7.542969 z m 0 0"
     fill="url(#d)"
     id="path7917" />
  <path
     d="m 30.253906 8.285156 c -5.207031 -0.003906 -9.429687 5.417969 -9.425781 12.101563 c 4.738281 4.34375 14.273437 4.386719 18.855469 0 c 0 -6.683594 -4.222656 -12.101563 -9.429688 -12.101563 z m 0 0"
     fill="url(#e)"
     id="path7919" />
  <path
     d="m 95.394531 83.71875 c -5.355469 0 -9.699219 4.570312 -9.703125 10.203125 v 22.222656 h 19.40625 v -22.222656 c 0 -5.632813 -4.34375 -10.203125 -9.703125 -10.203125 z m 0 0"
     fill="#986a44"
     id="path7921" />
  <path
     d="m 95.394531 83.722656 c -0.089843 0.003906 -0.179687 0.011719 -0.265625 0.019532 v 25.652343 c 0 2.625 0.027344 4.957031 0.070313 6.75 h 0.390625 c 0.042968 -1.792969 0.070312 -4.125 0.070312 -6.75 v -25.652343 c -0.089844 -0.007813 -0.175781 -0.015626 -0.265625 -0.019532 z m 0 0"
     fill="#63452c"
     id="path7923" />
  <g
     fill="#3d3846"
     id="g7931">
    <path
       d="m 72.6875 88.40625 c -4.019531 0 -7.277344 3.421875 -7.277344 7.648438 v 5.3125 h 14.550782 v -5.3125 c 0 -4.226563 -3.257813 -7.648438 -7.273438 -7.648438 z m 0 0"
       id="path7925" />
    <path
       d="m 49.976562 88.40625 c -4.015624 0 -7.273437 3.421875 -7.273437 7.648438 v 5.3125 h 14.550781 v -5.3125 c 0 -4.226563 -3.257812 -7.648438 -7.277344 -7.648438 z m 0 0"
       id="path7927" />
    <path
       d="m 27.269531 88.40625 c -4.019531 0 -7.277343 3.421875 -7.277343 7.648438 v 5.3125 h 14.550781 v -5.3125 c 0 -4.226563 -3.257813 -7.648438 -7.273438 -7.648438 z m 0 0"
       id="path7929" />
  </g>
</svg>
