<?xml version="1.0" encoding="UTF-8"?>
<svg height="16px" viewBox="0 0 16 16" width="16px" xmlns="http://www.w3.org/2000/svg">
    <path d="m 3.289062 7.488281 c -1.261718 0 -2.277343 1.015625 -2.277343 2.277344 v 2.46875 c 0 1.261719 1.015625 2.277344 2.277343 2.277344 h 9.421876 c 1.261718 0 2.277343 -1.015625 2.277343 -2.277344 v -2.46875 c 0 -1.261719 -1.015625 -2.277344 -2.277343 -2.277344 z m 0 0"/>
    <path d="m 2.90625 1.285156 h 2.144531 v 8.433594 h -2.144531 z m 0 0"/>
    <path d="m 12.589844 7.488281 c 0 1.96875 -1.597656 3.566407 -3.566406 3.566407 s -3.566407 -1.597657 -3.566407 -3.566407 s 1.597657 -3.566406 3.566407 -3.566406 s 3.566406 1.597656 3.566406 3.566406 z m 0 0"/>
</svg>
